<svg xmlns="http://www.w3.org/2000/svg" version="1.1" xmlns:xlink="http://www.w3.org/1999/xlink" xmlns:svgjs="http://svgjs.dev/svgjs" width="1500" height="962" viewBox="0 0 1500 962"><g transform="matrix(1,0,0,1,-0.33253531674779424,0.3894736842104862)"><svg viewBox="0 0 385 247" data-background-color="#ffffff" preserveAspectRatio="xMidYMid meet" height="962" width="1500" xmlns="http://www.w3.org/2000/svg" xmlns:xlink="http://www.w3.org/1999/xlink"><g id="tight-bounds" transform="matrix(1,0,0,1,0.08535073129860393,-0.09999999999999432)"><svg viewBox="0 0 384.8292985374028 247.2" height="247.2" width="384.8292985374028"><g><svg viewBox="0 0 395.52 254.06730821067453" height="247.2" width="384.8292985374028"><g transform="matrix(1,0,0,1,0,157.02378914909093)"><svg viewBox="0 0 395.52 97.04351906158358" height="97.04351906158358" width="395.52"><g id="textblocktransform"><svg viewBox="0 0 395.52 97.04351906158358" height="97.04351906158358" width="395.52" id="textblock"><g><svg viewBox="0 0 395.52 97.04351906158358" height="97.04351906158358" width="395.52"><g transform="matrix(1,0,0,1,0,0)"><svg width="395.52" viewBox="2 -37.5 156.64 37.65" height="97.04351906158358" data-palette-color="#357960"><g class="wordmark-text-0" data-fill-palette-color="primary" id="text-0"><path d="M23.3-34.1L23.3-34.1 22.7-31.25Q18.85-32.1 16.15-32.1L16.15-32.1Q6.45-32.1 6.45-26.2L6.45-26.2Q6.45-23.95 7.88-22.75 9.3-21.55 11.48-20.78 13.65-20 16.15-19.38 18.65-18.75 20.8-17.7L20.8-17.7Q25.85-15.2 25.85-10.05 25.85-4.9 22-2.25L22-2.25Q18.7 0.05 13.3 0.05L13.3 0.05Q6.6 0.05 2-3L2-3 3.3-5.55Q4.65-4.6 7.15-3.78 9.65-2.95 12-2.95L12-2.95Q16.6-2.95 19.25-4.45L19.25-4.45Q22.45-6.3 22.45-9.75L22.45-9.75Q22.45-12.3 21.03-13.73 19.6-15.15 17.43-16.03 15.25-16.9 12.75-17.53 10.25-18.15 8.1-19.1L8.1-19.1Q3.05-21.3 3.05-25.65 3.05-30 6.05-32.55 9.05-35.1 14.55-35.1L14.55-35.1Q18.8-35.1 23.3-34.1ZM37.25-3.2L37.25-3.2Q38.35-2.8 40.75-2.8 43.15-2.8 46.95-4.75L46.95-4.75 46.95-25 50.2-25.25 50.2 0 46.95 0 46.95-2.7Q43.25 0.15 39.4 0.15L39.4 0.15Q34.6 0.15 32.45-2.7L32.45-2.7Q31.35-4.1 31.35-6.6L31.35-6.6 31.35-25 34.6-25.25 34.6-7.45Q34.6-4.35 37.25-3.2ZM59.95-37.5L59.95-23Q62.9-25.45 66.65-25.45L66.65-25.45Q73.05-25.45 75.6-19.8L75.6-19.8Q76.6-17.5 76.6-13.85L76.6-13.85Q76.6-7.1 73.05-3.55 69.5 0 63.85 0L63.85 0Q60.55 0 58.82-0.45 57.1-0.9 56.7-1.15L56.7-1.15 56.7-37.25 59.95-37.5ZM59.95-21.25L59.95-21.25 59.95-2.8Q61.4-2.45 63.1-2.45L63.1-2.45Q68.1-2.45 70.72-5.35 73.35-8.25 73.35-13.5 73.35-18.75 70.7-21L70.7-21Q68.85-22.55 65.9-22.55 62.95-22.55 59.95-21.25ZM85.99 0L82.84 0 82.84-35 85.99-35 85.99-18.85 102.99-18.85 102.99-35 106.14-35 106.14 0 102.99 0 102.99-15.85 85.99-15.85 85.99 0ZM119.29-3.2L119.29-3.2Q120.39-2.8 122.79-2.8 125.19-2.8 128.99-4.75L128.99-4.75 128.99-25 132.24-25.25 132.24 0 128.99 0 128.99-2.7Q125.29 0.15 121.44 0.15L121.44 0.15Q116.64 0.15 114.49-2.7L114.49-2.7Q113.39-4.1 113.39-6.6L113.39-6.6 113.39-25 116.64-25.25 116.64-7.45Q116.64-4.35 119.29-3.2ZM141.99-37.5L141.99-23Q144.94-25.45 148.69-25.45L148.69-25.45Q155.09-25.45 157.64-19.8L157.64-19.8Q158.64-17.5 158.64-13.85L158.64-13.85Q158.64-7.1 155.09-3.55 151.54 0 145.89 0L145.89 0Q142.59 0 140.86-0.45 139.14-0.9 138.74-1.15L138.74-1.15 138.74-37.25 141.99-37.5ZM141.99-21.25L141.99-21.25 141.99-2.8Q143.44-2.45 145.14-2.45L145.14-2.45Q150.14-2.45 152.76-5.35 155.39-8.25 155.39-13.5 155.39-18.75 152.74-21L152.74-21Q150.89-22.55 147.94-22.55 144.99-22.55 141.99-21.25Z" fill="#357960" data-fill-palette-color="primary"></path></g></svg></g></svg></g></svg></g></svg></g><g transform="matrix(1,0,0,1,131.68206489951166,0)"><svg viewBox="0 0 132.1558702009767 134.1141433431085" height="134.1141433431085" width="132.1558702009767"><g><svg xmlns="http://www.w3.org/2000/svg" xmlns:xlink="http://www.w3.org/1999/xlink" version="1.1" x="0" y="0" viewBox="0.4386251559655894 0.2679999999999998 23.122374844034415 23.465" enable-background="new 0 0 24 24" xml:space="preserve" height="134.1141433431085" width="132.1558702009767" class="icon-icon-0" data-fill-palette-color="accent" id="icon-0"><g fill="#357960" data-fill-palette-color="accent"><path d="M20.272 23.733H3.728c-1.813 0-3.289-1.476-3.289-3.289s1.476-3.29 3.289-3.29h16.545c1.813 0 3.288 1.477 3.288 3.29S22.086 23.733 20.272 23.733zM3.728 18.455c-1.097 0-1.989 0.893-1.989 1.989s0.893 1.988 1.989 1.988h16.544c1.097 0 1.988-0.892 1.988-1.988s-0.892-1.989-1.987-1.989H3.728z" fill="#357960" data-fill-palette-color="accent"></path><path d="M22.909 20.946c-0.313 0-0.589-0.227-0.641-0.546L19.486 3.372c-0.162-0.995-1.058-1.804-1.997-1.804H6.51c-0.938 0-1.834 0.81-1.997 1.804L1.73 20.4c-0.058 0.355-0.396 0.592-0.747 0.537C0.63 20.88 0.39 20.545 0.447 20.191L3.229 3.162c0.266-1.623 1.707-2.894 3.28-2.894h10.979c1.575 0 3.016 1.271 3.28 2.895l2.782 17.029c0.058 0.354-0.183 0.688-0.537 0.746C22.979 20.943 22.944 20.946 22.909 20.946z" fill="#357960" data-fill-palette-color="accent"></path><path d="M20.035 21.095H3.965c-0.359 0-0.65-0.291-0.65-0.65s0.291-0.65 0.65-0.65h16.07c0.359 0 0.65 0.291 0.65 0.65S20.395 21.095 20.035 21.095z" fill="#357960" data-fill-palette-color="accent"></path></g></svg></g></svg></g><g></g></svg></g><defs></defs></svg><rect width="384.8292985374028" height="247.2" fill="none" stroke="none" visibility="hidden"></rect></g></svg></g></svg>